<?xml version="1.0" encoding="utf-8"?>
<!-- Generator: Adobe Illustrator 26.5.1, SVG Export Plug-In . SVG Version: 6.00 Build 0)  -->
<svg version="1.1" id="Layer_1" xmlns="http://www.w3.org/2000/svg" xmlns:xlink="http://www.w3.org/1999/xlink" x="0px" y="0px"
	 viewBox="0 0 539.1 137.2" style="enable-background:new 0 0 539.1 137.2;" xml:space="preserve">
<style type="text/css">
	.st0{fill:#231F20;}
	.st1{fill:none;stroke:#47BD9D;stroke-width:1.1494;stroke-miterlimit:10;}
</style>
<g>
	<g>
		<g>
			<g>
				<path d="M198.5,80.6l-0.9,2.2c-1.8,0.9-3.7,1.5-5.5,2s-3.7,0.7-5.7,0.7c-2.4,0-4.6-0.2-6.8-0.9c-2.2-0.7-4-1.5-5.5-2.6
					s-2.9-2.4-3.7-3.7s-1.8-2.9-2.2-4.6c-0.4-1.8-0.9-3.5-0.9-5.5c0-5.1,1.8-9.3,5.3-12.6s8.4-4.9,14.3-4.9c1.5,0,2.9,0,4,0.2
					c1.3,0.2,2.6,0.4,4.4,0.9c1.8,0.4,2.9,0.7,3.3,0.9c-0.4,0.9-0.7,1.8-0.9,2.6c-0.2,1.3-0.4,2.9-0.4,4.6h-1.5V57
					c-0.2-1.5-1.1-2.6-2.6-3.5c-1.5-0.7-3.7-1.1-6.8-1.1c-2.2,0-4.2,0.2-5.7,0.9c-1.5,0.4-2.9,1.3-4.2,2.6c-1.1,1.1-2.2,2.6-2.9,4.4
					s-1.1,4-1.1,6.8c0,4.9,1.5,8.6,4.4,11.5s6.8,4.4,11.7,4.4c2.2,0,4.2-0.2,6-0.9c1.3-0.4,2.4-1.1,3.7-2L198.5,80.6z"/>
			</g>
		</g>
		<g>
			<g>
				<path d="M199.9,74c0-3.5,1.1-6.4,3.3-8.6c2.2-2.2,5.1-3.3,8.6-3.3c3.3,0,6,1.1,8.2,3.1c2.2,2,3.1,4.9,3.1,8.2
					c0,2.2-0.4,4.4-1.5,6.4s-2.6,3.3-4.6,4.4s-4.2,1.5-6.4,1.5c-1.8,0-3.3-0.2-4.6-0.9c-1.3-0.7-2.2-1.3-3.1-2.4
					c-0.9-0.9-1.3-2-1.8-2.9C200.1,77.7,199.9,75.9,199.9,74z M204.3,72.2c0,2,0.2,4,0.9,6s1.5,3.5,2.9,4.4c1.3,0.9,2.6,1.3,4,1.3
					c1.8,0,3.3-0.7,4.6-2.2s1.8-3.7,1.8-6.6c0-2.4-0.4-4.6-1.1-6.4c-0.7-1.8-1.8-3.1-2.9-4c-1.1-0.7-2.4-1.1-3.7-1.1
					c-2,0-3.5,0.7-4.6,2.2C204.9,67.3,204.3,69.1,204.3,72.2z"/>
			</g>
		</g>
		<g>
			<g>
				<path d="M223.2,84.8v-1.3c1.8,0,2.6,0,2.9,0c0.2,0,0.4-0.2,0.7-0.2c0.2,0,0.2-0.2,0.2-0.4c0.2-0.4,0.2-0.9,0.2-1.8
					c0-4.2,0.2-6.4,0.2-6.6v-2.9c0-1.3,0-2.6,0-4c0-0.9,0-1.5-0.2-1.8c0-0.2-0.2-0.2-0.4-0.4c-0.2,0-1.3-0.2-3.1,0V64
					c3.1-0.4,5.5-1.1,7.1-1.8c0.2-0.2,0.4-0.2,0.7-0.2c0,0,0.2,0,0.2,0.2c0,0,0,0.2,0,0.4c0,0,0,0.2,0,0.4c0,0.9-0.2,2.4-0.2,4.4
					c0.7-0.9,1.3-1.5,2-2.4s1.1-1.3,1.3-1.5c0.4-0.4,1.1-0.7,1.5-0.9c0.7-0.2,1.3-0.4,2-0.4s1.3,0.2,2,0.4l0.2,0.4
					c-0.2,2.2-0.4,4-0.4,5.5h-1.3c-0.4-0.7-0.9-1.3-1.3-1.8c-0.4-0.4-1.1-0.4-1.8-0.4c-1.3,0-2.2,0.4-3.1,1.5
					c-0.9,1.1-1.3,2.4-1.3,4.4v2.4c0,1.1,0,2.9,0.2,5.7c0,0.9,0,1.5,0.2,1.8c0,0.2,0.2,0.4,0.2,0.7c0,0.2,0.2,0.2,0.4,0.2
					c0.4,0.2,1.8,0.2,3.7,0.4V85c-2.9,0-5.1-0.2-7.1-0.2C227,84.8,225,84.8,223.2,84.8z"/>
			</g>
		</g>
		<g>
			<g>
				<path d="M242,84.8v-1.3h2.2c0.4,0,0.7,0,0.7-0.2c0.2,0,0.2-0.2,0.4-0.4c0.2-0.2,0.2-0.9,0.4-1.8c0-0.2,0-2.4,0.2-6.8v-2.9
					c0-1.3,0-2.6,0-4.2c0-0.9-0.2-1.5-0.2-1.8c0-0.2-0.2-0.2-0.4-0.4c-0.2,0-1.3-0.2-3.1,0v-1.3c3.1-0.4,5.5-1.1,7.1-1.8
					c0.2-0.2,0.4-0.2,0.7-0.2c0.2,0,0.2,0,0.2,0.2c0,0,0,0.2,0,0.4c0,0,0,0.2,0,0.4c0,0.7,0,1.8-0.2,3.5l4.4-3.7
					c1.3-0.4,2.4-0.7,3.7-0.7s2.4,0.2,3.7,0.9c1.1,0.4,2,1.1,2.6,2c0.7,0.9,0.9,1.8,1.1,3.1c0,0.7,0.2,2.6,0.2,6V78
					c0,2,0,3.5,0.2,4.2c0,0.4,0.2,0.9,0.4,0.9c0.2,0.2,0.4,0.2,0.7,0.4h2.4v1.3c-1.5,0-2.9-0.2-4-0.2c-0.9,0-2.4,0-4.4,0.2
					c0.2-4,0.4-6.4,0.4-7.5v-4c0-2.4,0-4.2-0.2-4.9c-0.2-1.1-0.9-2-1.8-2.6c-0.9-0.7-2.2-0.9-3.5-0.9c-1.1,0-2.2,0.2-3.3,0.9
					c-1.1,0.7-1.8,1.1-2.2,2c-0.4,0.7-0.7,2-0.7,3.7v2.9c0,4.2,0.2,6.4,0.2,6.6c0,0.9,0.2,1.3,0.2,1.8c0,0.2,0.2,0.2,0.2,0.4
					c0.2,0,0.2,0.2,0.7,0.2c0,0,0.9,0,2.6,0v1.3c-2,0-3.7-0.2-5.3-0.2C247.1,84.8,244.9,84.8,242,84.8z"/>
			</g>
		</g>
		<g>
			<g>
				<path d="M289.4,81.2l-0.7,1.8c-1.1,0.7-2,1.1-2.4,1.3c-0.7,0.4-1.5,0.7-2.6,0.9c-0.9,0.2-2,0.4-3.1,0.4c-2,0-4-0.4-5.7-1.3
					c-1.8-0.9-3.1-2.2-4-4s-1.3-3.7-1.3-6.2c0-1.8,0.2-3.5,0.7-4.9c0.4-1.5,1.1-2.6,1.8-3.3c0.4-0.4,1.1-1.1,2.2-1.8
					c0.9-0.7,2-1.1,2.9-1.5c1.3-0.4,2.6-0.9,4-0.9c1.8,0,3.3,0.4,4.9,1.1c1.3,0.9,2.4,2,3.1,3.3s1.1,2.9,1.1,4.6c0,0.4,0,0.9,0,1.5
					c-1.1,0.2-2.2,0.4-3.1,0.4c-1.8,0.2-3.3,0.2-5.1,0.2h-7.7c0,2.2,0.4,4.2,1.1,5.5s1.8,2.4,3.1,3.1c1.3,0.7,2.6,1.1,4.2,1.1
					c0.9,0,2-0.2,2.9-0.4c0.9-0.2,2.2-0.9,3.5-1.8L289.4,81.2z M274.4,71.5c0.4,0,1.3,0,2.4,0.2c2.4,0,4,0.2,4.9,0.2
					c2.2,0,3.5,0,4.2-0.2c0-0.4,0-0.7,0-0.9c0-2.4-0.4-4.4-1.5-5.5s-2.4-1.8-4-1.8c-1.8,0-3.3,0.7-4.4,2
					C274.9,66.7,274.4,68.7,274.4,71.5z"/>
			</g>
		</g>
		<g>
			<g>
				<path d="M290.5,84.8v-1.3h2.2c0.4,0,0.7,0,0.9-0.2c0.2,0,0.2-0.2,0.4-0.4c0.2-0.2,0.2-0.9,0.2-1.8c0-0.2,0-2.4,0.2-6.8v-9.9
					c0-2.6,0-5.3-0.2-8.2c0-2-0.2-2.9-0.2-3.1s-0.2-0.2-0.4-0.4c-0.2,0-1.3-0.2-3.3-0.2V51c3.5-0.4,6-1.1,7.5-1.8
					c0.2,0,0.4-0.2,0.4-0.2h0.2v0.2c0,0,0,0.2,0,0.4v0.9c0,2.9-0.2,5.3-0.2,7.3v3.7V74c0,4.2,0.2,6.4,0.2,6.6c0,0.9,0,1.3,0.2,1.8
					c0,0.2,0.2,0.2,0.2,0.4c0.2,0,0.2,0.2,0.7,0.2c0,0,0.9,0,2.6,0v1.3c-2.2-0.2-4-0.2-5.7-0.2C294.9,84.6,292.9,84.8,290.5,84.8z"
					/>
			</g>
		</g>
		<g>
			<g>
				<path d="M304.6,84.8v-1.3h2.2c0.4,0,0.7,0,0.9-0.2c0.2,0,0.2-0.2,0.4-0.4c0.2-0.2,0.2-0.9,0.2-1.8c0-0.2,0-2.4,0.2-6.8v-9.9
					c0-2.6,0-5.3-0.2-8.2c0-2-0.2-2.9-0.2-3.1s-0.2-0.2-0.4-0.4c-0.2,0-1.3-0.2-3.3-0.2V51c3.5-0.4,6-1.1,7.5-1.8
					c0.2,0,0.4-0.2,0.4-0.2h0.2v0.2c0,0,0,0.2,0,0.4v0.9c0,2.9-0.2,5.3-0.2,7.3v3.7V74c0,4.2,0.2,6.4,0.2,6.6c0,0.9,0,1.3,0.2,1.8
					c0,0.2,0.2,0.2,0.2,0.4c0.2,0,0.2,0.2,0.7,0.2c0,0,0.9,0,2.6,0v1.3c-2.2-0.2-4-0.2-5.7-0.2C309,84.6,307.1,84.8,304.6,84.8z"/>
			</g>
		</g>
		<g>
			<g>
				<path d="M326.9,52.6V51c2.6,0.2,5.1,0.2,7.3,0.2s4.4,0,6.6-0.2v1.5c-1.8,0-3.1,0.2-3.3,0.2c-0.4,0.2-0.7,0.2-0.9,0.7
					c-0.2,0.2-0.4,1.1-0.4,2.2c0,0.2,0,2.6,0,6.8v8.8c0,3.3,0.2,5.7,0.7,6.6c0.4,1.1,1.1,2,2,2.6c0.7,0.4,1.8,0.9,2.9,1.3
					c1.3,0.2,2.6,0.4,4.2,0.4c1.8,0,3.3-0.2,4.6-0.7c1.3-0.4,2.4-0.9,3.1-1.5c0.7-0.7,1.1-1.3,1.5-2.2s0.7-1.8,0.7-3.1
					c0.2-1.3,0.2-3.1,0.2-5.1v-7.3c0-2.2,0-4.2,0-6.4c0-1.5-0.2-2.4-0.2-2.6c-0.2-0.2-0.4-0.4-0.9-0.7c-0.4-0.2-1.5-0.2-3.3-0.2V51
					c2.6,0.2,4.4,0.2,5.7,0.2c1.1,0,3.1,0,6-0.2v1.5c-2,0-3.1,0.2-3.5,0.2c-0.4,0.2-0.7,0.2-0.9,0.7c-0.2,0.2-0.2,1.1-0.4,2.2
					c0,0.2,0,2.6,0,6.8v7.9c0,4-0.2,6.6-0.9,8.2c-0.4,1.5-1.5,2.9-3.1,4.2c-1.1,0.9-2.4,1.5-4.2,2c-1.8,0.4-3.5,0.7-5.7,0.7
					c-2.4,0-4.6-0.2-6.4-0.9c-1.8-0.7-3.1-1.3-4-2.2c-0.9-0.9-1.5-2-2-2.9c-0.4-1.3-0.7-3.5-0.7-6.6V62.5c0-2.2,0-4.2,0-6.4
					c0-1.5-0.2-2.4-0.4-2.6c-0.2-0.2-0.4-0.4-0.9-0.7C329.8,52.8,328.7,52.8,326.9,52.6z"/>
			</g>
		</g>
		<g>
			<g>
				<path d="M360.2,84.8v-1.3h2.2c0.4,0,0.7,0,0.7-0.2c0.2,0,0.2-0.2,0.4-0.4c0.2-0.2,0.2-0.9,0.4-1.8c0-0.2,0-2.4,0.2-6.8v-2.9
					c0-1.3,0-2.6,0-4.2c0-0.9-0.2-1.5-0.2-1.8c0-0.2-0.2-0.2-0.4-0.4c-0.2,0-1.3-0.2-3.1,0v-1.3c3.1-0.4,5.5-1.1,7.1-1.8
					c0.2-0.2,0.4-0.2,0.7-0.2c0.2,0,0.2,0,0.2,0.2s0,0.2,0,0.4c0,0,0,0.2,0,0.4c0,0.7,0,1.8-0.2,3.5l4.4-3.7
					c1.3-0.4,2.4-0.7,3.7-0.7c1.3,0,2.4,0.2,3.7,0.9c1.1,0.4,2,1.1,2.6,2c0.7,0.9,0.9,1.8,1.1,3.1c0,0.7,0.2,2.6,0.2,6V78
					c0,2,0,3.5,0.2,4.2c0,0.4,0.2,0.9,0.4,0.9c0.2,0.2,0.4,0.2,0.7,0.4h2.4v1.3c-1.5,0-2.9-0.2-4-0.2c-0.9,0-2.4,0-4.4,0.2
					c0.2-4,0.4-6.4,0.4-7.5v-4c0-2.4,0-4.2-0.2-4.9c-0.2-1.1-0.9-2-1.8-2.6c-0.9-0.7-2.2-0.9-3.5-0.9c-1.1,0-2.2,0.2-3.3,0.9
					c-0.9,0.7-1.8,1.1-2.2,2c-0.4,0.7-0.7,2-0.7,3.7v2.9c0,4.2,0.2,6.4,0.2,6.6c0,0.9,0.2,1.3,0.2,1.8c0,0.2,0.2,0.2,0.2,0.4
					c0.2,0,0.2,0.2,0.7,0.2c0,0,0.9,0,2.6,0v1.3c-2,0-3.7-0.2-5.3-0.2C365.3,84.8,363.1,84.8,360.2,84.8z"/>
			</g>
		</g>
		<g>
			<g>
				<path d="M388.9,65.4V64c3.1-0.4,5.7-1.1,7.7-2l0.4,0.4c-0.2,3.3-0.2,6-0.2,7.7v4.4c0,4.2,0.2,6.4,0.2,6.6c0,0.9,0,1.3,0.2,1.8
					c0,0.2,0.2,0.2,0.2,0.4c0.2,0,0.2,0.2,0.7,0.2c0,0,0.9,0,2.6,0V85c-2.4,0-4.4-0.2-5.7-0.2c-1.3,0-3.3,0-6.2,0.2v-1.3h2.2
					c0.4,0,0.7,0,0.7-0.2c0.2,0,0.2-0.2,0.4-0.4c0.2-0.2,0.2-0.9,0.4-1.8c0-0.2,0-2.4,0.2-6.8v-4.2c0-2.4,0-3.7-0.2-4.2
					c0-0.2-0.2-0.4-0.4-0.4C391.8,65.4,390.7,65.4,388.9,65.4z M394.6,51.5c0.7,0,1.3,0.2,2,0.9c0.4,0.4,0.7,1.1,0.7,2
					c0,0.7-0.2,1.3-0.9,1.8c-0.7,0.4-1.1,0.9-1.8,0.9c-0.7,0-1.3-0.2-2-0.9s-0.9-1.1-0.9-1.8s0.2-1.3,0.9-2
					C393.3,51.7,393.7,51.5,394.6,51.5z"/>
			</g>
		</g>
		<g>
			<g>
				<path d="M411.6,85c-0.7-1.5-1.1-2.6-1.3-3.3l-2-4.6l-4.9-11.2c-0.2-0.7-0.7-1.1-0.9-1.3s-0.4-0.4-0.7-0.4c-0.2,0-0.9,0-1.8-0.2
					v-1.3c2.6,0,4.6,0.2,5.7,0.2c1.3,0,3.1,0,5.5-0.2V64c-1.8,0-2.6,0.2-3.1,0.4s-0.4,0.4-0.4,0.7c0,0.4,0.2,1.5,0.9,3.1l2.9,7.3
					l0.7,1.5c0.9,2,1.3,3.1,1.5,3.7l2.4-5.3c0.2-0.2,0.9-2,2.2-5.3c0.7-2,1.3-3.3,1.5-4.4c0-0.2,0-0.4,0-0.7c0-0.2,0-0.4-0.2-0.7
					c-0.4-0.2-1.3-0.4-3.1-0.4v-1.3c2.4,0,4,0.2,4.6,0.2c0.7,0,2,0,4.6-0.2v1.3c-0.9,0-1.5,0.2-2,0.4c-0.2,0.2-0.7,0.7-0.9,1.1
					c-0.2,0.4-1.1,2-2.6,5.1l-2.2,4.9c-0.4,0.9-1.8,4.2-4.2,9.7C414,85,411.6,85,411.6,85z"/>
			</g>
		</g>
		<g>
			<g>
				<path d="M445.6,81.2l-0.7,1.8c-1.1,0.7-2,1.1-2.4,1.3c-0.7,0.4-1.5,0.7-2.6,0.9c-0.9,0.2-2,0.4-3.1,0.4c-2,0-4-0.4-5.7-1.3
					s-3.1-2.2-4-4s-1.3-3.7-1.3-6.2c0-1.8,0.2-3.5,0.7-4.9c0.4-1.5,1.1-2.6,1.8-3.3c0.4-0.4,1.1-1.1,2.2-1.8c0.9-0.7,2-1.1,2.9-1.5
					c1.3-0.4,2.6-0.9,4-0.9c1.8,0,3.3,0.4,4.9,1.1c1.3,0.9,2.4,2,3.1,3.3s1.1,2.9,1.1,4.6c0,0.4,0,0.9,0,1.5
					c-1.1,0.2-2.2,0.4-3.1,0.4c-1.8,0.2-3.3,0.2-5.1,0.2h-7.7c0,2.2,0.4,4.2,1.1,5.5s1.8,2.4,3.1,3.1c1.3,0.7,2.6,1.1,4.2,1.1
					c0.9,0,2-0.2,2.9-0.4c0.9-0.2,2.2-0.9,3.5-1.8L445.6,81.2z M430.4,71.5c0.4,0,1.3,0,2.4,0.2c2.4,0,4,0.2,4.9,0.2
					c2.2,0,3.5,0,4.2-0.2c0-0.4,0-0.7,0-0.9c0-2.4-0.4-4.4-1.5-5.5s-2.4-1.8-4-1.8c-1.8,0-3.3,0.7-4.4,2
					C430.8,66.7,430.4,68.7,430.4,71.5z"/>
			</g>
		</g>
		<g>
			<g>
				<path d="M447.6,84.8v-1.3c1.8,0,2.6,0,2.9,0s0.4-0.2,0.7-0.2s0.2-0.2,0.2-0.4c0.2-0.4,0.2-0.9,0.2-1.8c0-4.2,0.2-6.4,0.2-6.6
					v-2.9c0-1.3,0-2.6,0-4c0-0.9,0-1.5-0.2-1.8c0-0.2-0.2-0.2-0.4-0.4c-0.2,0-1.3-0.2-3.1,0V64c3.1-0.4,5.5-1.1,7.1-1.8
					c0.2-0.2,0.4-0.2,0.7-0.2s0.2,0,0.2,0.2s0,0.2,0,0.4c0,0,0,0.2,0,0.4c0,0.9-0.2,2.4-0.2,4.4c0.7-0.9,1.3-1.5,2-2.4
					s1.1-1.3,1.3-1.5c0.4-0.4,1.1-0.7,1.5-0.9c0.7-0.2,1.3-0.4,2-0.4s1.3,0.2,2,0.4l0.2,0.4c-0.2,2.2-0.4,4-0.4,5.5h-1.1
					c-0.4-0.7-0.9-1.3-1.3-1.8c-0.4-0.4-1.1-0.4-1.8-0.4c-1.3,0-2.2,0.4-3.1,1.5s-1.3,2.4-1.3,4.4v2.4c0,1.1,0,2.9,0.2,5.7
					c0,0.9,0,1.5,0.2,1.8c0.2,0.2,0.2,0.4,0.2,0.7c0,0.2,0.2,0.2,0.4,0.2c0.4,0.2,1.8,0.2,3.7,0.4V85c-2.9,0-5.1-0.2-7.1-0.2
					C451.3,84.8,449.5,84.8,447.6,84.8z"/>
			</g>
		</g>
		<g>
			<g>
				<path d="M466.8,77.7h1.3c0,0.9,0,1.5,0.2,2.2s0.2,1.1,0.4,1.5c0.2,0.4,0.4,0.9,0.9,1.3c0.4,0.4,0.9,0.7,1.3,0.9s0.9,0.2,1.3,0.4
					c0.4,0,1.1,0,2.2,0c1.5,0,2.9-0.4,4-1.3s1.5-2,1.5-3.5c0-0.7-0.2-1.3-0.4-1.8c-0.2-0.4-0.9-0.9-1.3-1.1c-0.7-0.2-2-0.7-4-1.1
					s-3.3-0.9-4-1.1c-0.9-0.4-1.5-0.7-2.2-1.1s-0.9-1.1-1.3-1.8c-0.2-0.7-0.4-1.5-0.4-2.4c0-1.3,0.2-2.4,0.9-3.5
					c0.7-1.1,1.8-2,3.1-2.6c1.3-0.7,2.9-0.9,4.6-0.9c1.1,0,2.2,0.2,3.5,0.4s2.4,0.7,3.3,1.1c0,1.8-0.2,3.5-0.2,5.3h-1.3
					c0-1.1-0.2-2-0.2-2.2c0-0.4-0.2-0.7-0.4-0.9s-0.4-0.7-0.9-0.9s-0.9-0.7-1.5-0.9c-0.7-0.2-1.5-0.4-2.4-0.4
					c-1.3,0-2.4,0.4-3.3,1.3s-1.3,1.8-1.3,2.9c0,0.7,0.2,1.1,0.4,1.5c0.2,0.4,0.7,0.9,0.9,1.1c0.4,0.2,0.9,0.4,1.8,0.7l4,0.9
					c2,0.4,3.3,0.9,4.2,1.3c0.7,0.4,1.3,0.9,1.8,1.8c0.4,0.7,0.7,1.8,0.7,2.9c0,2.2-0.9,4-2.6,5.5c-1.8,1.5-4.2,2.4-7.1,2.4
					c-1.3,0-3.1-0.2-5.5-0.7c-1.3-0.2-2-0.4-2-0.4v-0.2c0,0,0-0.2,0-0.4c0.2-0.7,0.2-1.3,0.2-2C466.8,81.2,466.8,79.7,466.8,77.7z"
					/>
			</g>
		</g>
		<g>
			<g>
				<path d="M485.7,65.4V64c3.1-0.4,5.7-1.1,7.7-2l0.4,0.4c-0.2,3.3-0.2,6-0.2,7.7v4.4c0,4.2,0.2,6.4,0.2,6.6c0,0.9,0,1.3,0.2,1.8
					c0,0.2,0.2,0.2,0.2,0.4c0.2,0,0.2,0.2,0.7,0.2c0,0,0.9,0,2.6,0V85c-2.4,0-4.4-0.2-5.7-0.2c-1.3,0-3.3,0-6.2,0.2v-1.3h2.2
					c0.4,0,0.7,0,0.7-0.2c0.2,0,0.2-0.2,0.4-0.4c0.2-0.2,0.2-0.9,0.4-1.8c0-0.2,0-2.4,0.2-6.8v-4.2c0-2.4,0-3.7-0.2-4.2
					c0-0.2-0.2-0.4-0.4-0.4C488.6,65.4,487.7,65.4,485.7,65.4z M491.5,51.5c0.7,0,1.3,0.2,2,0.9c0.4,0.4,0.7,1.1,0.7,2
					c0,0.7-0.2,1.3-0.9,1.8s-1.1,0.9-1.8,0.9s-1.3-0.2-2-0.9s-0.9-1.1-0.9-1.8s0.2-1.3,0.9-2S490.8,51.5,491.5,51.5z"/>
			</g>
		</g>
		<g>
			<g>
				<path d="M498.7,66.2v-1.1c1.5-0.7,2.9-1.1,3.7-1.5c0-3.7,0-6.2-0.2-7.3c1.5-0.7,2.9-1.1,4-1.8l0.7,0.4c-0.2,1.3-0.4,4.2-0.7,8.6
					c1.3,0,2,0,2.2,0s0.9,0,2.4,0c0.9,0,1.5,0,1.8,0l0.2,0.2l-0.4,2.2c-1.1,0-2,0-2.6,0c-0.7,0-2,0-3.5,0l-0.2,9.7
					c0,2.4,0,3.7,0,4.2s0.2,0.9,0.4,1.1c0.2,0.4,0.4,0.7,0.9,0.9c0.4,0.2,0.9,0.4,1.8,0.4c0.7,0,1.1,0,1.5,0s0.9-0.2,1.5-0.4
					l0.2,0.9c-0.7,0.7-1.5,1.1-2.2,1.8c-0.7,0.2-1.1,0.4-1.8,0.4c-0.4,0-1.1,0-1.8,0c-0.9,0-1.5,0-2-0.2c-0.4-0.2-0.9-0.4-1.3-0.9
					s-0.7-0.7-1.1-1.3c-0.4-0.7-0.4-1.3-0.4-2.4s0-2.2,0-3.5c0-0.2,0-0.4,0-0.9V66h-0.9C500.7,66,499.8,66.2,498.7,66.2z"/>
			</g>
		</g>
		<g>
			<g>
				<path d="M514.6,97.6l1.1-3.7h0.7c0.2,0.2,0.7,0.4,0.7,0.7c0.2,0.2,0.4,0.2,0.7,0.4c0.2,0,0.7,0.2,1.1,0.2c0.4,0,0.9,0,1.3-0.2
					c0.4-0.2,0.9-0.4,1.3-1.1c0.4-0.4,0.9-1.3,1.3-2.4c0.9-1.8,1.5-3.3,2.2-5.1c-0.4-1.3-1.1-3.1-1.8-4.9l-3.7-9.3
					c-1.1-2.9-2-4.9-2.6-6.4c-0.2-0.7-0.7-0.9-0.9-1.1s-1.1-0.4-2.2-0.4V63c2,0,4,0.2,5.7,0.2s3.7,0,5.3-0.2v0.9
					c-1.5,0-2.6,0.2-2.9,0.2c-0.4,0.2-0.7,0.4-0.7,0.9c0,0.2,0.2,0.9,0.4,1.5c0.7,2,1.1,3.5,1.8,5.1l1.5,3.7c0.9,2.2,1.8,4,2.2,5.3
					l1.3-2.9c0.4-1.1,1.3-3.3,2.6-6.4s2-5.1,2.2-5.7c0-0.2,0-0.4,0-0.7c0-0.2-0.2-0.4-0.4-0.7c-0.2-0.2-1.1-0.2-2.9-0.4v-1.5
					c1.8,0,3.5,0.2,4.9,0.2c1.3,0,2.9,0,4.2-0.2l-0.2,1.5c-0.9,0-1.3,0.2-1.8,0.4c-0.4,0.2-1.1,1.3-2,3.1s-2.6,5.3-5.1,10.6
					l-5.5,12.8c-0.9,2-1.5,3.5-2.2,4.4s-1.3,1.5-2.4,2c-0.9,0.4-2,0.7-2.9,0.7c-0.4,0-0.9,0-1.3-0.2C515.5,98,515.1,97.8,514.6,97.6
					z"/>
			</g>
		</g>
	</g>
	<g>
		<g>
			<g>
				<g>
					<g>
						<g>
							<path class="st0" d="M10.3,69.1c2.9,0,4.6-1.8,4.8-5.1c0-0.6,0-1.4-0.1-2.2v-0.2h-2.4l0.2,0.5c0.1,0.4,0.2,1.1,0.2,1.8
								c-0.1,1.6-1.4,2.7-3.1,2.5C8.1,66.3,7,65.1,7,63.5c0-0.6,0.1-1.1,0.6-1.7L8,61.4L5.7,61l-0.1,0.2c-0.4,0.7-0.5,1.5-0.6,2.2
								c-0.2,3.3,1.6,5.5,5,5.6C10.1,69.1,10.2,69.1,10.3,69.1z"/>
						</g>
					</g>
				</g>
				<g>
					<g>
						<g>
							<path class="st0" d="M10.7,57.9c0.7,0.2,1.3,0.2,1.8,0.2c2.2,0,3.8-1.3,4.5-3.4c0.4-1.4,0.2-2.5-0.4-3.7
								c-0.7-1.1-1.8-1.9-3.3-2.4c-0.6-0.2-1.3-0.2-1.7-0.2c-2.2,0-3.8,1.3-4.5,3.4C6.3,54.7,7.7,56.9,10.7,57.9z M9.2,52.5
								c0.4-1.3,1.4-1.5,2.2-1.5c0.4,0,0.8,0.1,1.3,0.2c1,0.4,1.8,0.8,2.2,1.5c0.2,0.5,0.4,0.9,0.1,1.5c-0.4,1.3-1.4,1.5-2.2,1.5
								c-0.5,0-0.8-0.1-1.3-0.2C10.1,55,8.7,54,9.2,52.5z"/>
						</g>
					</g>
				</g>
				<g>
					<g>
						<g>
							<path class="st0" d="M20.7,45l-3.3-1.8l0.1-0.2c0.4-0.6,0.6-0.6,1-0.5l3.3,0.5l1.3-2.4l-4.4-0.5c-0.4,0-0.6,0-0.8,0
								c0-0.9-0.5-1.8-1.4-2.3c-0.5-0.2-0.9-0.4-1.4-0.4c-1.6,0-2.4,1.6-3.2,3.1l-1.2,2.2l8.7,4.7L20.7,45z M15.5,41.9l-0.1,0.2
								l-1.6-0.8l0.1-0.2c0.4-0.7,0.8-1.4,1.5-1c0.2,0.1,0.4,0.2,0.5,0.5C15.9,41,15.7,41.5,15.5,41.9z"/>
						</g>
					</g>
				</g>
				<g>
					<g>
						<g>
							<polygon class="st0" points="26.1,36.3 21.6,32.6 28,34.1 29.7,31.9 22.1,25.5 20.5,27.4 25.1,31.2 18.7,29.7 16.9,31.9 
								24.5,38.2 							"/>
						</g>
					</g>
				</g>
				<g>
					<g>
						<g>
							<polygon class="st0" points="37.2,25.5 35.8,24 33.1,26.1 31.8,24.7 34.3,22.6 33,21 30.4,23 29.5,21.8 32.3,19.6 30.9,17.9 
								26.2,21.7 32.4,29.4 							"/>
						</g>
					</g>
				</g>
				<g>
					<g>
						<g>
							<polygon class="st0" points="45.4,20.6 44.3,18.8 41.2,20.5 37.4,13.7 35.2,15 40.1,23.6 							"/>
						</g>
					</g>
				</g>
				<g>
					<g>
						<g>
							<polygon class="st0" points="53.7,17.4 53,15.5 49.7,16.6 47.1,9.4 44.7,10.2 48,19.5 							"/>
						</g>
					</g>
				</g>
				<g>
					<g>
						<g>
							<path class="st0" d="M63.8,15.8c0.2,0,0.4,0,0.6,0c1.4-0.1,2.4-0.6,3-1.3s0.8-1.7,0.7-2.9l-0.5-6.2L65,5.5l0.5,5.6
								c0.1,1.9-0.7,2.3-1.4,2.4c-0.1,0-0.1,0-0.2,0c-0.6,0-1.4-0.2-1.6-2.2l-0.5-5.6L59.3,6l0.5,6.2C60.2,14.5,61.5,15.8,63.8,15.8
								z"/>
						</g>
					</g>
				</g>
				<g>
					<g>
						<g>
							<polygon class="st0" points="75.1,9.9 77.2,16 80.1,16.5 81.3,6.6 78.9,6.3 78.1,12.1 76.1,5.9 73.3,5.6 71.9,15.4 
								74.3,15.7 							"/>
						</g>
					</g>
				</g>
				<g>
					<g>
						<g>
							<polygon class="st0" points="88.8,8.8 86.4,8 83.4,17.4 85.8,18.2 							"/>
						</g>
					</g>
				</g>
				<g>
					<g>
						<g>
							<polygon class="st0" points="101.2,14.3 99,13.2 94.2,18.1 95.2,11.3 92.8,10 91.4,20.5 93.9,21.7 							"/>
						</g>
					</g>
				</g>
				<g>
					<g>
						<g>
							<polygon class="st0" points="103.7,28.6 105,26.9 102.3,24.7 103.4,23.1 105.9,25.1 107.3,23.4 104.8,21.4 105.7,20.2 
								108.4,22.4 109.9,20.6 105,16.9 98.9,24.8 							"/>
						</g>
					</g>
				</g>
				<g>
					<g>
						<g>
							<path class="st0" d="M107.9,32.7l2.9-2.5l0.1,0.2c0.4,0.5,0.4,0.6,0.1,1.1l-1.6,3l1.8,2.1l1.9-3.9c0.1-0.1,0.2-0.5,0.2-0.8
								c0.8,0.4,1.8,0.2,2.7-0.5c2.2-1.8,0.5-3.8-0.8-5.3l-1.6-1.8l-7.5,6.5L107.9,32.7z M113.8,27.5l0.1,0.2
								c0.4,0.5,0.7,0.9,0.7,1.3c0,0.2-0.1,0.4-0.4,0.5c-0.1,0.2-0.4,0.2-0.5,0.2c-0.5,0-0.9-0.5-1.1-0.8l-0.1-0.2L113.8,27.5z"/>
						</g>
					</g>
				</g>
				<g>
					<g>
						<g>
							<path class="st0" d="M117.1,40.6c-0.5,0.4-1.1-0.2-1.4-0.7c-0.4-0.6-0.5-1.1-0.5-1.9v-0.6l-2.3,1L113,39
								c0.2,0.8,0.4,1.3,0.8,2.1c0.8,1.4,1.8,2.1,3,2.1c0.6,0,1-0.1,1.6-0.5c1.7-1,1.5-2.7,1.3-3.9c-0.1-0.8-0.2-1.4,0.1-1.6
								c0.2-0.1,0.4-0.1,0.5-0.1c0.5,0,0.8,0.5,0.9,0.6c0.4,0.5,0.5,1,0.6,1.6l0.1,0.5l2.1-0.9v-0.2c-0.1-0.7-0.5-1.4-0.9-2.2
								c-1-1.8-2.9-2.4-4.5-1.4c-1.7,1-1.5,2.7-1.3,3.8C117.4,39.8,117.5,40.4,117.1,40.6z"/>
						</g>
					</g>
				</g>
				<g>
					<g>
						<g>
							
								<rect x="117.4" y="45.3" transform="matrix(0.9259 -0.3777 0.3777 0.9259 -8.5249 49.6535)" class="st0" width="9.9" height="2.5"/>
						</g>
					</g>
				</g>
				<g>
					<g>
						<g>
							<polygon class="st0" points="127.4,52.9 119.9,54.8 120.5,57.2 128.1,55.3 128.7,57.9 130.8,57.4 128.9,49.8 126.8,50.4 
															"/>
						</g>
					</g>
				</g>
				<g>
					<g>
						<g>
							<polygon class="st0" points="121.6,64.4 121.7,67 125.6,66.7 131.8,70 131.6,67.2 128,65.5 131.4,63.3 131.2,60.3 
								125.5,64.3 							"/>
						</g>
					</g>
				</g>
				<g>
					<g>
						<g>
							<polygon class="st0" points="12.3,87.6 14.4,87 13.5,84.1 15,83.6 15.9,86.8 18,86.2 16.4,80.6 6.9,83.4 7.6,85.8 11.5,84.6 
															"/>
						</g>
					</g>
				</g>
				<g>
					<g>
						<g>
							<path class="st0" d="M21.1,95.9c0.4-1.1,0.2-2.4-0.4-3.7c-0.9-1.8-2.3-2.8-4.1-2.8c-0.8,0-1.7,0.2-2.7,0.7
								c-1.5,0.7-2.4,1.7-2.9,3c-0.4,1.1-0.2,2.4,0.4,3.7c0.9,1.7,2.3,2.8,4.1,2.8c0.8,0,1.7-0.2,2.7-0.7
								C19.7,98.1,20.8,97.2,21.1,95.9z M17.2,96.5C16.6,96.9,16,97,15.4,97c-0.9,0-1.5-0.4-1.8-1.1c-0.2-0.6-0.4-1-0.1-1.5
								c0.2-0.7,0.9-1.4,1.8-1.8c0.6-0.2,1.1-0.5,1.7-0.5c0.9,0,1.5,0.4,1.8,1.1c0.2,0.6,0.4,1,0.1,1.5C18.7,95.4,18.1,96,17.2,96.5
								z"/>
						</g>
					</g>
				</g>
				<g>
					<g>
						<g>
							<path class="st0" d="M28,103.6l-4.5,3.6c-1.1,0.9-2.1,1-2.8,0.2c-0.2-0.4-0.4-0.7-0.4-1c0.1-0.5,0.5-1,1.1-1.6l4.5-3.6
								l-1.6-1.9l-5,3.9c-1,0.8-1.6,1.7-1.6,2.8c0,0.9,0.4,1.8,1.1,2.9c0.9,1.3,1.9,1.8,3.1,1.8c0.8,0,1.6-0.4,2.4-1l5-4L28,103.6z"
								/>
						</g>
					</g>
				</g>
				<g>
					<g>
						<g>
							<polygon class="st0" points="36.4,111.7 32.7,116.2 34.1,109.8 31.9,108 25.6,115.7 27.6,117.3 31.2,112.7 29.9,119.1 
								32,121 38.3,113.3 							"/>
						</g>
					</g>
				</g>
				<g>
					<g>
						<g>
							<path class="st0" d="M43.8,116.4l-2.5-1.3l-4.5,8.8l2.5,1.3c1.3,0.6,2.3,0.9,3.3,0.9c1.7,0,3.1-0.9,4-2.8
								C48.1,120.4,47.1,118.1,43.8,116.4z M44.2,122.3c-0.5,1-1.4,1.6-2.4,1.6c-0.5,0-0.8-0.1-1.3-0.4l-0.6-0.4l2.5-5.1l0.6,0.4
								c0.7,0.4,1.1,0.9,1.4,1.5C44.7,120.7,44.5,121.4,44.2,122.3z"/>
						</g>
					</g>
				</g>
				<g>
					<g>
						<g>
							<polygon class="st0" points="49.3,129.5 55.2,131.1 55.7,129 52.3,128.1 52.7,126.3 55.9,127.1 56.5,125 53.3,124.2 
								53.6,122.6 57.2,123.5 57.7,121.4 51.8,120 							"/>
						</g>
					</g>
				</g>
				<g>
					<g>
						<g>
							<path class="st0" d="M63.9,122.3l-2.9-0.1l-0.6,9.9l2.9,0.1c0.2,0,0.5,0,0.7,0c3.3,0,5.1-1.6,5.3-4.7c0.1-1.5-0.2-2.8-1-3.7
								C67.3,122.9,65.9,122.4,63.9,122.3z M63.8,130h-0.7l0.4-5.6h0.7c1.4,0.1,2.7,1.1,2.5,3S65.1,130,63.8,130z"/>
						</g>
					</g>
				</g>
				<g>
					<g>
						<g>
							<path class="st0" d="M78,121.4l-1.7,10.4l2.7-0.6l0.4-2.2l3.2-0.7l1.3,1.9l2.8-0.6l-5.9-8.8L78,121.4z M79.6,127l0.4-2.7
								l1.4,2.2L79.6,127z"/>
						</g>
					</g>
				</g>
				<g>
					<g>
						<g>
							<polygon class="st0" points="87.4,126.6 88.3,129 90.6,128.1 89.8,125.8 							"/>
						</g>
					</g>
				</g>
				<g>
					<g>
						<g>
							<path class="st0" d="M92.3,116.6l-2.5,1.4l4.7,8.7l2.5-1.4c3.3-1.8,4.1-4.1,2.7-7C98.1,115.4,95.6,114.8,92.3,116.6z
								 M96.3,123.3l-0.6,0.4l-2.7-5l0.6-0.4c0.4-0.2,0.8-0.4,1.3-0.4c1,0,1.8,0.6,2.4,1.5C98.3,121.1,97.4,122.6,96.3,123.3z"/>
						</g>
					</g>
				</g>
				<g>
					<g>
						<g>
							<polygon class="st0" points="101.6,119.7 103,121.8 105,120.3 103.6,118.2 							"/>
						</g>
					</g>
				</g>
				<g>
					<g>
						<g>
							<polygon class="st0" points="105.5,106.9 105,110.9 107.2,111.2 107.5,109.6 112.2,114.3 114,112.6 107,105.4 							"/>
						</g>
					</g>
				</g>
				<g>
					<g>
						<g>
							<path class="st0" d="M118.9,101.8c-0.8-0.6-1.7-0.7-2.8-0.4c0-0.9-0.5-1.8-1.1-2.3c-1.3-0.9-2.9-0.4-4.1,1.3
								c-1.1,1.6-1,3.2,0.4,4.2c0.7,0.5,1.6,0.6,2.4,0.4c-0.1,1,0.2,1.8,1,2.4c0.6,0.5,1.1,0.6,1.7,0.6c1,0,1.9-0.6,2.9-1.7
								c0.7-0.9,1-1.8,0.9-2.8C120.1,102.9,119.6,102.4,118.9,101.8z M114.2,102.5c-0.4,0.2-0.7,0.5-1,0.5c-0.1,0-0.4,0-0.5-0.1
								c-0.5-0.4-0.2-0.9,0-1.3c0.1-0.2,0.4-0.4,0.6-0.4c0.1,0,0.4,0.1,0.6,0.2C114.2,101.7,114.4,102.1,114.2,102.5z M117.6,105.2
								c-0.4,0.5-0.9,0.6-1.4,0.2c-0.4-0.4-0.6-0.7-0.5-1.4c0.7-0.5,1.3-0.6,1.7-0.2c0.2,0.1,0.4,0.4,0.4,0.6S117.8,105,117.6,105.2
								z"/>
						</g>
					</g>
				</g>
				<g>
					<g>
						<g>
							<path class="st0" d="M123.4,92.1c-1.7-0.8-3.3-0.4-4.1,1.3c-0.2,0.5-0.4,0.9-0.2,1.4c-0.6-0.5-1.1-1.3-0.7-2.3
								c0.2-0.5,0.6-0.8,0.9-1.1l0.4-0.2l-1.8-1.3l-0.2,0.2c-0.5,0.5-0.9,1-1.3,1.7c-0.5,1-0.6,1.9-0.2,2.9c0.6,1.6,2.2,2.8,3.4,3.3
								c1.1,0.6,2.1,0.8,2.9,0.8c1.3,0,2.2-0.6,2.9-1.8C126.2,94.9,125.5,93.2,123.4,92.1z M123.4,95.8c-0.1,0.4-0.5,0.5-0.8,0.5
								c-0.2,0-0.6-0.1-0.8-0.2c-0.5-0.2-0.8-0.6-0.9-0.8c-0.1-0.2,0-0.4,0-0.6c0.1-0.4,0.4-0.5,0.8-0.5c0.2,0,0.6,0.1,0.9,0.2
								c0.5,0.2,0.7,0.5,0.8,0.8C123.5,95.5,123.4,95.7,123.4,95.8z"/>
						</g>
					</g>
				</g>
				<g>
					<g>
						<g>
							<path class="st0" d="M127,82c-1.9-0.6-3.6,0.4-4.1,2.2c0,0.2-0.1,0.4-0.1,0.5l-1.1-0.4l1-3.4l-1.9-0.6l-1.7,5.7l5.5,1.7v-0.5
								c0-0.6,0.1-1,0.2-1.6c0.1-0.5,0.7-1.6,1.7-1.4c1.1,0.4,0.9,1.6,0.8,1.9c-0.2,0.7-0.6,1.1-0.9,1.6l-0.4,0.4l2.3,0.8l0.1-0.2
								c0.4-0.7,0.7-1.5,0.9-2.1c0.4-1.1,0.4-2.2-0.1-3.1C128.7,82.9,127.9,82.3,127,82z"/>
						</g>
					</g>
				</g>
			</g>
			<g>
				<g>
					<g>
						<path class="st0" d="M54.3,58l-0.5-0.3c-2.8-1.5-7.5-4.3-7.5-6.4V40.4h16.3v11c0,1.8-4.3,4.4-7.8,6.3L54.3,58z M48.3,47.5v3.9
							c0.2,0.7,2.9,2.7,6,4.3c3.2-1.7,6-3.6,6.3-4.3v-3.9H48.3z M48.3,45.5h12.3v-3.1H48.3V45.5z"/>
					</g>
				</g>
			</g>
			<g>
				<g>
					<g>
						<path class="st0" d="M68.4,137.2c-37.8,0-68.6-30.8-68.6-68.6S30.5,0,68.4,0S137,30.8,137,68.6S106.2,137.2,68.4,137.2z
							 M68.4,2C31.6,2,1.8,31.9,1.8,68.6s29.9,66.6,66.6,66.6S135,105.3,135,68.6S105.1,2,68.4,2z"/>
					</g>
				</g>
			</g>
			<g>
				<g>
					<g>
						<path class="st0" d="M68.4,118.7c-27.6,0-50.1-22.5-50.1-50.1s22.5-50.1,50.1-50.1s50.1,22.5,50.1,50.1S96,118.7,68.4,118.7z
							 M68.4,20.5c-26.5,0-48.1,21.6-48.1,48.1s21.6,48.1,48.1,48.1s48.1-21.6,48.1-48.1S94.9,20.5,68.4,20.5z"/>
					</g>
				</g>
			</g>
			<g>
				<g>
					<g>
						<path class="st1" d="M68.4,44.5"/>
					</g>
				</g>
			</g>
			<g>
				<g>
					<g>
						<path class="st0" d="M82.4,58l-0.5-0.3c-2.9-1.5-7.7-4.3-7.7-6.4V40.4h16.3v11c0,1.5-2.6,3.6-7.7,6.3L82.4,58z M76.2,51.3
							c0.3,0.7,3,2.7,6.2,4.4c3.1-1.7,5.8-3.6,6.2-4.3V50l-6.2-4l-6.2,4V51.3z M88.5,51.4L88.5,51.4L88.5,51.4z M82.4,43.6l6.2,4
							v-5.2H76.3v5.2L82.4,43.6z"/>
					</g>
				</g>
			</g>
			<g>
				<g>
					<g>
						
							<rect x="57.9" y="74.1" transform="matrix(0.999 -4.550020e-02 4.550020e-02 0.999 -3.3605 2.8694)" class="st0" width="6.9" height="2.3"/>
					</g>
				</g>
			</g>
			<g>
				<g>
					<g>
						
							<rect x="57.9" y="80.5" transform="matrix(0.999 -4.528096e-02 4.528096e-02 0.999 -3.6344 2.8619)" class="st0" width="6.9" height="2.3"/>
					</g>
				</g>
			</g>
			<g>
				<g>
					<g>
						
							<rect x="57.9" y="86.8" transform="matrix(0.999 -4.528096e-02 4.528096e-02 0.999 -3.9197 2.8683)" class="st0" width="6.9" height="2.3"/>
					</g>
				</g>
			</g>
			<g>
				<g>
					<g>
						<rect x="50" y="75.3" class="st0" width="3.9" height="3.2"/>
					</g>
				</g>
			</g>
			<g>
				<g>
					<g>
						<rect x="50" y="84.4" class="st0" width="3.9" height="3.2"/>
					</g>
				</g>
			</g>
			<g>
				<g>
					<g>
						<path class="st0" d="M67.4,94.4c-0.1-0.1-1.4-1-2.2-0.9C61.1,94.2,54.4,94,54.1,94h-1V69.3l1.1,0.1c0.1,0,5.3,0.6,10-0.3
							c1.6-0.4,3.3,0,4.1,0.3c0.8-0.3,2.7-0.7,4.3-0.3c4.7,0.8,9.9,0.3,10,0.3l1.1-0.1V94h-1c-0.3,0-7.2,0.2-11.3-0.5
							c-0.9-0.2-2,0.7-2.3,0.9L68.3,95L67.4,94.4z M65.7,91.5c1.1-0.1,2,0.5,2.6,0.9c0.7-0.5,2.2-1.1,3.6-0.9c3,0.5,7.8,0.5,9.9,0.5
							V71.5c-1.9,0.2-5.7,0.3-9.5-0.4h-0.1c-1.5-0.4-3.4,0.3-3.4,0.3l-0.5,0.1h-0.1c0,0-1.9-0.8-3.4-0.4h-0.1
							c-3.7,0.7-7.6,0.5-9.5,0.4v20.6c2,0,6.8,0,9.9-0.5C65.4,91.5,65.4,91.5,65.7,91.5z"/>
					</g>
				</g>
			</g>
			<g>
				<g>
					<g>
						
							<rect x="74.4" y="78.2" transform="matrix(4.537401e-02 -0.999 0.999 4.537401e-02 -9.3828 153.4056)" class="st0" width="2.3" height="6.9"/>
					</g>
				</g>
			</g>
			<g>
				<g>
					<g>
						
							<rect x="74.4" y="84.5" transform="matrix(4.537401e-02 -0.999 0.999 4.537401e-02 -15.721 159.4177)" class="st0" width="2.3" height="6.9"/>
					</g>
				</g>
			</g>
			<g>
				<g>
					<g>
						<rect x="83.1" y="75.3" class="st0" width="3.7" height="3.2"/>
					</g>
				</g>
			</g>
			<g>
				<g>
					<g>
						<rect x="83.1" y="84.4" class="st0" width="3.7" height="3.2"/>
					</g>
				</g>
			</g>
			<g>
				<g>
					<g>
						
							<rect x="74.4" y="71.9" transform="matrix(3.784794e-02 -0.9993 0.9993 3.784794e-02 -2.6115 148.0766)" class="st0" width="2.3" height="6.9"/>
					</g>
				</g>
			</g>
		</g>
		<g>
			<g>
				<g>
					<path class="st0" d="M68.3,114.3l-0.4-0.2c-0.3-0.2-7.8-3.5-15.4-9.4c-10.2-7.9-15.8-16.6-15.9-25.2
						c0.4-18.3,0.1-42.6,0.1-42.9v-1h63.7v1c0,0.3-0.1,24.9-0.1,42.9c0,8.6-5.5,17.2-15.9,25.2c-7.7,5.9-15.4,9.3-15.7,9.4
						L68.3,114.3z M69.3,62.5v49.1c6-2.9,28.9-15.3,28.9-32.1c0-5.3,0-11.3,0-17H69.3L69.3,62.5z M38.7,62.5c0,5.7-0.1,11.6-0.2,17
						c0.2,9.9,8.4,18.3,15.2,23.6c5.5,4.3,11.1,7.3,13.6,8.5V62.5H38.7z M38.7,60.6h59.5c0-10.5,0.1-19.9,0.1-22.9H38.5
						C38.6,40.6,38.7,50,38.7,60.6z"/>
				</g>
			</g>
		</g>
	</g>
</g>
</svg>
